<?xml version="1.0" encoding="UTF-8" standalone="no"?>
<svg
   version="1.1"
   id="Layer_1"
   x="0px"
   y="0px"
   width="600"
   viewBox="0 0 600 600.00001"
   enable-background="new 0 0 1024 1024"
   xml:space="preserve"
   sodipodi:docname="CroPDF.svg"
   inkscape:version="1.2 (dc2aeda, 2022-05-15)"
   inkscape:export-filename="CroPDF.png"
   inkscape:export-xdpi="96"
   inkscape:export-ydpi="96"
   height="600"
   xmlns:inkscape="http://www.inkscape.org/namespaces/inkscape"
   xmlns:sodipodi="http://sodipodi.sourceforge.net/DTD/sodipodi-0.dtd"
   xmlns="http://www.w3.org/2000/svg"
   xmlns:svg="http://www.w3.org/2000/svg"><defs
   id="defs25" /><sodipodi:namedview
   id="namedview23"
   pagecolor="#ffffff"
   bordercolor="#000000"
   borderopacity="0.25"
   inkscape:showpageshadow="2"
   inkscape:pageopacity="0.0"
   inkscape:pagecheckerboard="0"
   inkscape:deskcolor="#d1d1d1"
   showgrid="false"
   inkscape:zoom="1.9714902"
   inkscape:cx="222.42058"
   inkscape:cy="199.84882"
   inkscape:window-width="1710"
   inkscape:window-height="1022"
   inkscape:window-x="0"
   inkscape:window-y="39"
   inkscape:window-maximized="0"
   inkscape:current-layer="Layer_1"><inkscape:grid
     type="xygrid"
     id="grid136"
     originx="3.4541666e-09"
     originy="-3.1831093e-12" /></sodipodi:namedview>
<g
   id="g706"
   transform="translate(-208.15716,-314.50547)"
   style="stroke:#ffffff;stroke-width:2;stroke-dasharray:none;paint-order:normal;stroke-opacity:1"><path
     id="path2"
     d="m 696.58131,420.26327 c -4.89626,0.26926 -9.7948,0.49584 -14.69235,0.74179 -12.22098,0.50095 -13.24202,0.75759 -15.85704,2.89839 -1.94838,1.67113 -2.55272,22.19149 -3.1444,25.82396 -3.94068,24.19236 -12.69007,53.49172 -21.23313,76.45327 -1.17177,3.14946 -0.49911,4.441 2.88473,5.17604 34.55704,7.50621 69.09648,15.09388 103.60139,22.83552 3.84909,0.86365 5.51199,0.16175 6.53103,-3.80455 6.39316,-24.88263 12.55894,-49.81571 18.10951,-74.90243 1.44303,-6.52199 0.74501,-12.18514 -3.36277,-17.81446 -6.39226,-8.75985 -11.73019,-18.23375 -14.85719,-28.71708 -1.05071,-3.52231 -3.11661,-4.49556 -6.46839,-4.59248 -17.51271,-0.87103 -36.36098,-4.8941 -51.51139,-4.09797 z m 4.2727,9.55917 c 8.31446,-0.0423 16.6245,0.6184 24.93395,2.32427 4.5092,0.92567 9.19328,0.93324 14.47476,2.42153 -2.56242,4.97401 -4.95061,9.64252 -7.37008,14.29507 -2.26995,4.3651 -4.64199,8.67914 -6.84258,13.07854 -2.01359,4.02562 -1.69126,4.76434 2.96551,5.26176 8.93764,0.95479 17.90616,1.61644 26.85766,2.44624 1.6717,0.15498 3.32399,0.52738 4.98482,0.79949 1.68721,1.33311 1.3752,2.5949 1.15059,3.84246 -3.90984,21.7243 -10.16759,42.88498 -15.40116,64.29158 -0.95629,3.91139 -3.45051,3.44017 -6.1387,2.84022 -13.29206,-2.96643 -26.57026,-5.9942 -39.85709,-8.98387 -13.5627,-3.05181 -27.14024,-6.04063 -40.69118,-9.14378 -6.76367,-1.54887 -6.8292,-1.66631 -4.54469,-8.42176 5.63319,-16.65831 10.25959,-33.58115 13.26151,-50.91302 1.62792,-9.39913 3.19553,-18.82243 3.82103,-28.35773 0.15475,-2.35837 1.00602,-3.56014 3.43366,-3.88367 8.32815,-1.10991 16.64752,-1.85502 24.96199,-1.89733 z m 47.16616,10.629 c 3.85771,6.92884 7.35741,13.21285 10.85648,19.49748 -7.20357,0.91255 -14.04108,0.0164 -21.41459,-1.08796 2.71189,-6.8139 6.3302,-12.30684 10.55811,-18.40952 z"
     sodipodi:nodetypes="cccsscscsssccsscssssccsssscsssscccc"
     style="stroke-width:2;stroke:#ffffff;stroke-dasharray:none;paint-order:normal;stroke-opacity:1" /><path
     fill="#000000"
     opacity="1"
     stroke="none"
     d="m 684.13833,482.60982 c 15.42543,3.25678 30.49417,6.46013 45.55964,9.6785 1.50706,0.32199 2.97745,0.84358 4.49476,1.08301 2.65936,0.41973 4.16524,1.89048 3.80249,4.55564 -0.38156,2.80349 -2.37166,4.18613 -5.12344,3.76634 -4.56014,-0.69565 -9.09179,-1.60408 -13.60949,-2.54713 -12.46528,-2.60205 -24.9251,-5.23146 -37.3706,-7.92616 -5.6058,-1.2138 -7.77759,-3.21573 -6.65332,-6.18834 1.66892,-4.41258 5.22095,-3.25647 8.89996,-2.42186 z"
     id="path16"
     style="stroke-width:2;stroke:#ffffff;stroke-dasharray:none;paint-order:normal;stroke-opacity:1" /><path
     fill="#000000"
     opacity="1"
     stroke="none"
     d="m 722.98658,511.34189 c 1.86066,0.37084 3.3636,0.73818 4.88458,1.00175 2.91012,0.50426 4.81425,2.07598 4.30118,5.13358 -0.56299,3.35525 -3.15178,4.04669 -6.12022,3.43458 -6.59681,-1.36019 -13.17414,-2.81462 -19.7622,-4.21768 -10.28896,-2.19126 -20.58219,-4.36248 -30.86785,-6.56894 -1.23075,-0.264 -2.5124,-0.52466 -3.61674,-1.08817 -1.6292,-0.83136 -2.46345,-2.34556 -2.2235,-4.19081 0.26482,-2.03634 1.55038,-3.35224 3.5851,-3.55865 1.36932,-0.13893 2.81709,0.002 4.17199,0.28978 15.10589,3.20747 30.20045,6.46801 45.64766,9.76456 z"
     id="path18"
     style="stroke-width:2;stroke:#ffffff;stroke-dasharray:none;paint-order:normal;stroke-opacity:1" /><path
     fill="#000000"
     opacity="1"
     stroke="none"
     d="m 698.91397,467.04616 c 5.0063,1.06395 9.6538,2.12854 14.34355,2.95226 3.05349,0.53628 5.14909,1.85383 4.7118,5.20212 -0.49499,3.78969 -3.40666,4.18235 -6.36774,3.57004 -7.82014,-1.61713 -15.59769,-3.44066 -23.39228,-5.18152 -1.64022,-0.36633 -3.2736,-0.76865 -4.9231,-1.08723 -2.82343,-0.54535 -4.29119,-2.26011 -3.77518,-5.06415 0.53692,-2.91756 2.87546,-3.73466 5.47012,-3.28375 4.55478,0.79163 9.06377,1.84623 13.93283,2.89223 z"
     id="path20"
     style="stroke-width:2;stroke:#ffffff;stroke-dasharray:none;paint-order:normal;stroke-opacity:1" /></g><path
   id="path685"
   d="m 404.22195,105.41029 c -0.48867,5e-4 -0.97734,0.006 -1.4671,0.0165 -9.40336,0.20275 -19.0088,2.25752 -28.80115,6.14201 -17.67949,7.01317 -30.9622,19.61563 -42.23245,34.54752 -1.48554,1.96822 -3.15832,3.46464 -5.40187,4.50843 -27.46142,12.7762 -53.51952,28.09796 -79.1059,44.20724 -24.39218,15.35737 -48.15317,31.66941 -71.64351,48.3893 -28.53591,20.31129 -56.36445,41.53721 -83.78906,63.30747 -1.29389,1.02712 -3.33902,1.87955 -1.99788,5.41834 33.45966,-10.56083 65.59406,-25.30568 100.22873,-33.18429 -0.33383,0.62501 -0.39895,0.97518 -0.58849,1.06654 -2.15151,1.03727 -4.29075,2.11144 -6.49312,3.03143 -37.80822,15.79388 -74.63155,33.51266 -109.153262,55.74289 -11.000359,7.0837 -21.857418,14.36721 -32.041935,22.6031 -1.174867,0.95005 -2.649917,1.94297 -2.067117,3.79301 0.554384,1.75979 2.276941,2.01621 3.781471,2.22041 2.79391,0.37916 5.601526,0.0321 8.410223,-0.061 8.269563,-0.2735 16.535278,-3.57112 24.851539,0 1.156722,0.49674 2.772093,0.065 4.150716,-0.12032 7.998615,-1.07513 15.534965,-3.88765 23.063015,-6.55906 28.22509,-10.01582 55.83944,-21.56828 83.19563,-33.73652 2.1548,-0.95846 4.11933,-1.19795 6.47663,-0.83244 12.34138,1.91354 24.71373,3.62994 37.08279,5.36065 1.62166,0.22687 2.96633,0.78897 4.02709,2.02261 7.97613,9.27619 15.94148,18.5613 23.93172,27.82528 2.25943,2.61964 1.69042,4.16464 -1.64677,4.90735 -20.55126,4.57403 -41.0987,9.16772 -61.64421,13.76758 -0.90034,0.20157 -2.03407,0.1443 -2.31932,2.09843 56.72342,0 113.3322,-8e-4 170.36228,-0.002 15.64752,-4.6e-4 30.87309,0 46.17217,0 -0.16314,-1.89939 -1.12129,-1.91679 -1.88744,-2.15778 -9.11243,-2.86742 -18.21033,-5.78275 -27.34724,-8.57012 -4.69222,-1.43138 -9.20683,-3.69102 -14.13518,-4.06005 -7.42075,-0.55567 -14.87198,-0.77054 -22.31462,-0.93136 -2.72339,-0.0588 -4.8085,-0.94083 -6.76511,-2.79572 -5.34524,-5.06726 -9.61295,-11.00716 -13.92748,-16.90286 -2.2861,-3.12391 -5.25893,-5.8319 -6.49312,-9.69929 4.67402,-4.08355 9.22363,-8.05196 13.76429,-12.03016 1.08223,-0.9482 2.2928,-1.60657 3.72213,-1.85611 4.8855,-0.85304 9.46708,-2.64895 13.94066,-4.69469 21.36612,-9.77067 36.73253,-26.05948 48.9646,-45.60018 16.90695,-27.00893 25.43555,-57.07429 31.55071,-87.97274 1.24022,-6.26688 4.77435,-21.47715 11.80102,-22.2041 0.85215,-0.0199 7.82778,-0.28263 8.39663,0.11958 l 2.90763,-12.30235 c -4.56553,-0.0536 -10.8739,-0.20087 -15.71873,-0.2167 -0.23691,-7.8e-4 -0.47361,-0.127 -1.42258,-0.39891 19.56385,-2.69238 38.47132,-3.64535 57.50834,-1.11928 9.15753,1.02806 19.19528,2.3362 20.49807,2.47757 0.64585,-3.62453 0.259,-4.22363 -2.93419,-7.56623 -2.33573,-2.4451 -4.86798,-4.66371 -7.6536,-6.59862 -14.11722,-9.80551 -30.31644,-12.93446 -46.95682,-14.51073 -2.62303,-0.2485 -4.88534,-0.83276 -7.04204,-2.33251 -14.02799,-9.75498 -28.64832,-14.5728 -43.79679,-14.55718 z m 8.11021,19.57001 c 2.75375,-0.0713 4.79378,1.22226 5.83539,3.67432 1.41645,3.33453 0.35014,6.20599 -2.56988,8.02285 -2.93911,1.8287 -5.98005,1.36787 -8.40693,-1.21983 -2.47251,-2.63637 -1.93358,-6.20386 1.29236,-9.64159 1.17541,-0.44829 2.27611,-0.71242 3.2886,-0.80279 0.18983,-0.017 0.37687,-0.0282 0.56046,-0.033 z m -50.08571,77.10997 c 1.83577,1.37478 2.1451,3.27061 2.54041,5.20045 4.39028,21.4297 -1.37683,39.51324 -18.27931,53.59829 -11.45698,9.54731 -25.25436,14.52464 -39.24552,18.96834 -1.60701,0.51042 -3.23229,0.96134 -4.84964,1.43907 -37.40728,10.11586 -74.76259,16.67017 -112.83746,19.25846 14.05649,-3.27291 28.10845,-6.56817 42.17144,-9.81303 27.22514,-6.28187 54.67851,-11.75004 80.845,-21.89428 11.3059,-4.38306 22.24664,-9.53845 31.15014,-18.11446 13.14919,-12.66549 19.19668,-28.07443 17.85895,-46.32877 -0.0405,-0.55312 -0.0144,-1.11296 0.01,-1.6682 0.005,-0.12288 -0.0779,-1.04768 0.44508,-0.75332 z m -85.33673,126.07231 c -0.72086,6.29624 4.05593,7.94635 7.62393,10.53668 11.12542,8.07691 22.32503,16.05401 33.14967,24.80539 -1.14735,1.43292 -2.49177,0.92214 -3.5919,0.92805 -10.39928,0.0524 -20.80153,-0.0867 -31.19794,0.0923 -3.14196,0.0541 -5.03072,-1.15004 -6.34476,-3.78807 -2.87912,-5.77981 -5.78764,-11.54538 -8.68386,-17.31662 -2.47685,-4.10405 -2.39785,-6.7374 1.88249,-8.91464 2.5166,-1.2801 4.39392,-3.81886 7.16237,-6.34311 z"
   sodipodi:nodetypes="ssssssssccccsssscsscssssscsccccssssscssssscccscccsssssscsscsscccsccsssscccsccsscsccscc"
   style="stroke:#ffffff;stroke-width:1.68798;stroke-dasharray:none;stroke-opacity:1;paint-order:normal" />
<path
   fill="#000000"
   opacity="1"
   stroke="none"
   d="m 395.79827,499.37277 c -9.51054,0.83266 -18.65019,0.30908 -27.78479,0.34762 -3.55662,0.015 -4.00659,-2.05785 -3.99814,-4.96133 0.0555,-18.98462 0.0147,-37.96954 0.009,-56.95437 -0.002,-5.90638 0.0855,-11.81411 -0.0202,-17.71848 -0.0493,-2.75522 0.85769,-4.05211 3.80249,-4.26229 12.63908,-0.90169 25.2402,-1.44695 37.79728,0.99055 19.74135,3.83195 31.27243,17.75108 31.52624,37.9395 0.13424,10.67881 -1.70724,20.71783 -8.43496,29.36574 -8.23801,10.58928 -19.70832,14.34082 -32.89726,15.25306 m 17.01549,-56.08652 c -4.70201,-10.56513 -12.76314,-12.95394 -23.7523,-13.14881 -2.41062,-0.0427 -4.35533,0.59338 -4.33941,3.79136 0.0796,16.01345 0.0322,32.02751 0.0352,48.04137 2.7e-4,1.46627 0.16743,2.67189 2.02921,3.13344 8.30864,2.05985 20.21691,-2.82998 24.42269,-10.54343 5.37704,-9.86136 4.65457,-20.22887 1.60463,-31.27393 z"
   id="path4"
   style="stroke-width:1.68798006;stroke:#ffffff;stroke-dasharray:none;paint-order:normal;stroke-opacity:1" />
<path
   fill="#000000"
   opacity="1"
   stroke="none"
   d="m 356.02505,437.63861 c 0.0462,6.12279 0.71428,11.9109 -1.49908,17.45443 -4.84563,12.13621 -14.98071,16.38789 -26.85788,17.9066 -3.60827,0.46145 -7.27667,0.62274 -10.91667,0.61259 -2.94894,-0.008 -3.95704,1.2597 -3.92951,4.0631 0.0552,5.61708 -0.17527,11.23767 -0.0826,16.85342 0.061,3.69431 -1.36615,5.44425 -5.19269,5.27606 -3.78564,-0.16638 -7.58331,-0.0874 -11.37547,-0.0671 -2.65061,0.0143 -3.75307,-1.24744 -3.74935,-3.88811 0.0354,-25.28286 0.0375,-50.56572 -5.9e-4,-75.84858 -0.004,-2.69742 0.89789,-4.18491 3.80727,-4.32189 13.03885,-0.61388 26.11595,-1.64429 39.00596,1.22158 11.0086,2.4476 18.90271,8.40838 20.79062,20.73787 m -39.28929,21.31816 c 3.83569,0.23052 7.58527,-0.12847 11.13705,-1.71296 5.65417,-2.52244 8.26516,-8.25126 7.3267,-16.01629 -0.66756,-5.52338 -4.69248,-9.55118 -10.6648,-10.29591 -2.77429,-0.34601 -5.61291,-0.17937 -8.42246,-0.23943 -1.99536,-0.0427 -3.20921,0.71978 -3.20463,2.92965 0.0155,7.45275 0.008,14.90576 -0.029,22.35841 -0.0105,2.1585 1.03207,3.07754 3.85707,2.97653 z"
   id="path6"
   style="stroke-width:1.68798006;stroke:#ffffff;stroke-dasharray:none;paint-order:normal;stroke-opacity:1" />
<path
   fill="#000000"
   opacity="1"
   stroke="none"
   d="m 138.1953,499.06987 c -17.91251,-5.80376 -25.74797,-20.25879 -26.61424,-37.88031 -0.54785,-11.14388 1.80056,-21.43732 8.34189,-30.70049 7.09219,-10.04329 17.16384,-14.80563 28.90047,-16.09556 8.11289,-0.89169 16.28139,-0.32345 24.17597,2.37114 2.50408,0.85476 3.71023,2.02251 3.41663,4.83265 -0.3057,2.92619 -0.19075,5.90004 -0.19439,8.85313 -0.004,3.22714 -1.4599,3.85648 -4.30522,2.72829 -2.73413,-1.0841 -5.51752,-2.12203 -8.36704,-2.8238 -13.94104,-3.43324 -24.06583,2.52018 -27.95589,16.40057 -1.97413,7.04405 -2.04703,14.15522 -0.1531,21.23131 3.01339,11.25859 12.36612,21.05421 28.23731,16.72788 4.2822,-1.16733 8.46324,-2.70567 13.10482,-4.20774 0.56546,5.06956 0.41659,9.67714 0.14298,14.26706 -0.13652,2.29001 -2.30158,2.66508 -3.97594,3.23203 -11.35,3.84328 -22.83359,4.2353 -34.75425,1.06384 z"
   id="path8"
   style="stroke-width:1.68798006;stroke:#ffffff;stroke-dasharray:none;paint-order:normal;stroke-opacity:1" />
<path
   fill="#000000"
   opacity="1"
   stroke="none"
   d="m 446.6775,492.94106 c -0.007,-24.45757 0.0659,-48.50566 -0.0901,-72.55231 -0.026,-4.0071 1.13757,-5.36014 5.24851,-5.30533 15.88827,0.21167 31.78247,0.20884 47.6711,0.0143 4.10992,-0.0503 5.30327,1.29803 5.18665,5.33299 -0.32428,11.21243 -0.16773,11.22154 -11.33798,11.21933 -7.31269,-0.002 -14.62795,0.0913 -21.93688,-0.0799 -3.1303,-0.0734 -4.32163,1.09749 -4.18585,4.1705 0.15511,3.50917 0.13729,7.03194 0.0393,10.54446 -0.0769,2.75589 1.19269,3.72007 3.82773,3.68555 6.88967,-0.0902 13.7835,0.0577 20.67074,-0.10235 3.4435,-0.0799 4.65194,1.09511 4.47917,4.67166 -0.66091,13.6781 -0.18828,11.10709 -11.67791,11.39438 -4.63725,0.11601 -9.2862,0.11291 -13.91934,-0.0832 -2.62469,-0.11116 -3.45173,0.88494 -3.43045,3.39744 0.0713,8.43691 -0.13394,16.87763 0.0356,25.3115 0.0755,3.75268 -1.16985,5.48763 -5.06264,5.2569 -3.08275,-0.18276 -6.18549,-0.008 -9.27895,-0.0365 -6.16461,-0.0564 -6.16451,-0.069 -6.23869,-6.83944 z"
   id="path10"
   style="stroke-width:1.68798006;stroke:#ffffff;stroke-dasharray:none;paint-order:normal;stroke-opacity:1" />
<path
   fill="#000000"
   opacity="1"
   stroke="none"
   d="m 224.93161,462.15702 c 4.36002,-23.19776 30.30618,-27.48298 45.57123,-19.48898 3.57137,1.87028 6.42377,4.49678 8.67018,7.81282 6.834,10.08801 6.90409,27.94176 0.15441,38.10308 -6.87594,10.35139 -19.69254,14.61162 -34.11704,11.34043 -10.88077,-2.46752 -18.72025,-11.65204 -20.50111,-23.60034 -0.6941,-4.65703 -0.37952,-9.21733 0.22233,-14.16701 m 19.75363,9.9772 c 0.12111,3.38307 0.80817,6.65945 1.87456,9.86191 1.2928,3.88234 4.01079,6.26137 8.066,6.19944 4.24179,-0.0648 7.02091,-2.58347 8.04783,-6.74511 1.80339,-7.30846 2.1492,-14.64804 0.11245,-21.98268 -1.28719,-4.6353 -4.21166,-7.33149 -7.99921,-7.43508 -3.69407,-0.10107 -7.08443,2.54551 -8.54014,6.90434 -1.34327,4.02209 -1.74892,8.19918 -1.56149,13.19718 z"
   id="path12"
   style="stroke-width:1.68798006;stroke:#ffffff;stroke-dasharray:none;paint-order:normal;stroke-opacity:1" />
<path
   fill="#000000"
   opacity="1"
   stroke="none"
   d="m 204.07435,492.90789 c -0.0684,6.78864 -0.16354,5.9569 -6.2765,6.83871 -4.01539,0.57923 -8.56912,1.4844 -11.54632,-0.67621 -3.33225,-2.41823 -1.70256,-7.05489 -1.71242,-10.91584 -0.0369,-14.47038 0.27155,-29.07744 -0.1211,-43.52943 -0.0825,-3.0385 1.01889,-4.4805 4.15816,-4.18853 1.25243,0.11642 2.52524,0.0135 3.78878,0.0114 7.63802,-0.0129 7.63802,-0.0128 10.31861,6.71256 1.75973,0.0706 2.09251,-1.59732 2.9597,-2.54469 4.02551,-4.39762 8.93123,-6.01132 14.81185,-5.13642 2.28006,0.33917 3.14538,1.45879 3.10242,3.63538 -0.0637,3.22791 -0.0789,6.45736 -0.0638,9.68594 0.0119,2.54264 -1.02841,3.67371 -3.6479,2.97473 -2.80467,-0.74838 -5.56804,-0.39325 -8.30256,0.41169 -5.06703,1.49145 -7.41293,4.52356 -7.43611,9.77929 -0.039,8.84463 -0.0247,17.68948 -0.0328,26.94143 z"
   id="path14"
   style="stroke:#ffffff;stroke-width:1.68798;stroke-dasharray:none;stroke-opacity:1;paint-order:normal"
   sodipodi:nodetypes="ssssssccsssssssss" />



</svg>
